<?xml version="1.0" encoding="UTF-8" standalone="no"?>
<!-- Created with Inkscape (http://www.inkscape.org/) -->

<svg
   xmlns:dc="http://purl.org/dc/elements/1.1/"
   xmlns:cc="http://creativecommons.org/ns#"
   xmlns:rdf="http://www.w3.org/1999/02/22-rdf-syntax-ns#"
   xmlns:svg="http://www.w3.org/2000/svg"
   xmlns="http://www.w3.org/2000/svg"
   xmlns:sodipodi="http://sodipodi.sourceforge.net/DTD/sodipodi-0.dtd"
   xmlns:inkscape="http://www.inkscape.org/namespaces/inkscape"
   width="520"
   height="440"
   id="svg3071"
   version="1.1"
   inkscape:version="0.48.2 r9819"
   sodipodi:docname="Midsouth_Makers_Stacked_Logo.svg">
  <defs
     id="defs3073">
    <filter
       height="401.26401"
       width="479.763"
       y="66.741997"
       x="35.363998"
       filterUnits="userSpaceOnUse"
       id="Adobe_OpacityMaskFilter"
       color-interpolation-filters="sRGB">
      <feColorMatrix
         id="feColorMatrix3083"
         result="source"
         color-interpolation-filters="sRGB"
         values="-1 0 0 0 1  0 -1 0 0 1  0 0 -1 0 1  0 0 0 1 0"
         type="matrix" />
      <feFlood
         id="feFlood3085"
         result="back" />
      <feBlend
         id="feBlend3087"
         mode="normal"
         in2="back"
         in="source" />
    </filter>
  </defs>
  <sodipodi:namedview
     id="base"
     pagecolor="#ffffff"
     bordercolor="#666666"
     borderopacity="1.0"
     inkscape:pageopacity="0.0"
     inkscape:pageshadow="2"
     inkscape:zoom="1.4"
     inkscape:cx="106.42115"
     inkscape:cy="232.17795"
     inkscape:document-units="px"
     inkscape:current-layer="layer1"
     showgrid="false"
     inkscape:window-width="1680"
     inkscape:window-height="1026"
     inkscape:window-x="1680"
     inkscape:window-y="24"
     inkscape:window-maximized="1" />
  <metadata
     id="metadata3076">
    <rdf:RDF>
      <cc:Work
         rdf:about="">
        <dc:format>image/svg+xml</dc:format>
        <dc:type
           rdf:resource="http://purl.org/dc/dcmitype/StillImage" />
        <dc:title />
      </cc:Work>
    </rdf:RDF>
  </metadata>
  <g
     inkscape:label="Layer 1"
     inkscape:groupmode="layer"
     id="layer1"
     transform="translate(0,-612.36212)">
    <g
       id="g3094"
       transform="translate(-16.4141,564.13655)">
      <path
         style="fill:#58595b"
         inkscape:connector-curvature="0"
         d="m 158.436,303.714 h -0.492 l -11.223,-19.401 v 16.173 h 4.857 v 3.229 h -14.513 v -3.229 h 6.457 v -16.081 h -6.457 v -3.229 h 11.593 l 9.531,16.512 9.531,-16.512 h 11.562 v 3.229 h -6.427 v 16.081 h 6.427 v 3.229 H 164.8 v -3.229 h 4.827 v -16.173 l -11.191,19.401 z"
         id="path3096" />
      <path
         style="fill:#58595b"
         inkscape:connector-curvature="0"
         d="m 192.166,300.485 h 6.457 v 3.229 H 182.51 v -3.229 h 6.457 v -16.081 h -6.457 v -3.229 h 16.112 v 3.229 h -6.457 v 16.081 z"
         id="path3098" />
      <path
         style="fill:#58595b"
         inkscape:connector-curvature="0"
         d="m 222.237,281.176 c 1.783,0 3.453,0.297 5.012,0.892 1.557,0.595 2.916,1.399 4.074,2.414 1.157,1.015 2.075,2.209 2.752,3.582 0.676,1.374 1.014,2.839 1.014,4.397 0,1.557 -0.338,3.018 -1.014,4.381 -0.677,1.363 -1.595,2.553 -2.752,3.566 -1.158,1.016 -2.518,1.82 -4.074,2.414 -1.559,0.595 -3.229,0.892 -5.012,0.892 H 201.82 v -3.229 h 6.457 v -16.081 h -6.457 v -3.229 h 20.417 z m -0.186,19.309 c 1.333,0 2.584,-0.21 3.752,-0.63 1.168,-0.42 2.193,-0.994 3.074,-1.723 0.882,-0.727 1.573,-1.578 2.076,-2.552 0.502,-0.974 0.753,-2.014 0.753,-3.12 0,-1.107 -0.251,-2.152 -0.753,-3.137 -0.503,-0.984 -1.194,-1.84 -2.076,-2.568 -0.881,-0.727 -1.906,-1.301 -3.074,-1.721 -1.168,-0.42 -2.419,-0.631 -3.752,-0.631 h -10.576 v 16.081 h 10.576 z"
         id="path3100" />
      <path
         style="fill:#58595b"
         inkscape:connector-curvature="0"
         d="m 264.391,297.656 c 0,1.333 -0.404,2.435 -1.214,3.306 -0.81,0.872 -1.866,1.563 -3.167,2.075 -1.303,0.513 -2.758,0.871 -4.366,1.076 -1.61,0.205 -3.214,0.308 -4.812,0.308 -1.989,0 -3.87,-0.138 -5.643,-0.415 -1.773,-0.277 -3.378,-0.661 -4.813,-1.152 v 0.86 h -3.229 v -6.427 h 3.229 v 2.307 c 1.045,0.553 2.49,0.999 4.336,1.338 1.845,0.338 3.884,0.507 6.119,0.507 1.721,0 3.207,-0.103 4.457,-0.308 1.251,-0.205 2.281,-0.477 3.091,-0.814 0.81,-0.337 1.409,-0.728 1.799,-1.168 0.39,-0.441 0.584,-0.896 0.584,-1.369 0,-0.942 -0.415,-1.686 -1.245,-2.229 -0.83,-0.543 -1.983,-0.877 -3.459,-1 l -10.516,-1.014 c -0.554,-0.063 -1.271,-0.186 -2.152,-0.369 -0.882,-0.186 -1.748,-0.497 -2.598,-0.938 -0.852,-0.44 -1.584,-1.061 -2.199,-1.86 -0.615,-0.799 -0.922,-1.845 -0.922,-3.136 0,-1.333 0.389,-2.435 1.168,-3.306 0.779,-0.871 1.788,-1.563 3.029,-2.075 1.239,-0.513 2.648,-0.871 4.227,-1.076 1.579,-0.205 3.168,-0.308 4.767,-0.308 1.804,0 3.515,0.129 5.135,0.385 1.619,0.256 3.095,0.619 4.428,1.091 v -0.769 h 3.198 v 6.426 h -3.198 v -2.336 c -0.983,-0.533 -2.312,-0.969 -3.981,-1.307 -1.672,-0.339 -3.531,-0.508 -5.581,-0.508 -1.722,0 -3.193,0.104 -4.413,0.308 -1.219,0.205 -2.213,0.477 -2.982,0.815 -0.768,0.338 -1.327,0.727 -1.676,1.168 -0.348,0.441 -0.521,0.896 -0.521,1.368 0,0.942 0.42,1.687 1.26,2.229 0.84,0.542 1.999,0.876 3.475,0.999 l 10.484,1.015 c 0.555,0.062 1.277,0.184 2.168,0.369 0.893,0.184 1.764,0.497 2.613,0.938 0.852,0.441 1.584,1.061 2.199,1.86 0.615,0.799 0.921,1.845 0.921,3.136 z"
         id="path3102" />
      <path
         style="fill:#58595b"
         inkscape:connector-curvature="0"
         d="m 281.425,280.407 c 2.11,0 4.1,0.313 5.965,0.938 1.865,0.625 3.489,1.486 4.874,2.582 1.383,1.097 2.475,2.373 3.273,3.828 0.801,1.455 1.199,3.014 1.199,4.674 0,1.66 -0.398,3.224 -1.199,4.689 -0.799,1.465 -1.891,2.746 -3.273,3.843 -1.385,1.097 -3.009,1.958 -4.874,2.583 -1.865,0.625 -3.854,0.938 -5.965,0.938 -2.112,0 -4.095,-0.313 -5.95,-0.938 -1.855,-0.625 -3.475,-1.486 -4.857,-2.583 -1.384,-1.097 -2.476,-2.378 -3.275,-3.843 -0.799,-1.466 -1.199,-3.029 -1.199,-4.689 0,-1.66 0.4,-3.219 1.199,-4.674 0.8,-1.455 1.892,-2.731 3.275,-3.828 1.383,-1.096 3.002,-1.957 4.857,-2.582 1.856,-0.625 3.838,-0.938 5.95,-0.938 z m 0,21.001 c 1.66,0 3.208,-0.246 4.643,-0.738 1.435,-0.492 2.681,-1.148 3.735,-1.968 1.057,-0.819 1.881,-1.772 2.477,-2.86 0.594,-1.086 0.891,-2.223 0.891,-3.412 0,-1.189 -0.297,-2.322 -0.891,-3.398 -0.596,-1.076 -1.42,-2.023 -2.477,-2.844 -1.055,-0.819 -2.301,-1.476 -3.735,-1.968 -1.435,-0.491 -2.982,-0.737 -4.643,-0.737 -1.661,0 -3.203,0.246 -4.628,0.737 -1.425,0.492 -2.664,1.148 -3.721,1.968 -1.056,0.82 -1.881,1.768 -2.475,2.844 -0.595,1.076 -0.892,2.209 -0.892,3.398 0,1.189 0.297,2.326 0.892,3.412 0.594,1.088 1.419,2.041 2.475,2.86 1.057,0.819 2.296,1.476 3.721,1.968 1.425,0.492 2.967,0.738 4.628,0.738 z"
         id="path3104" />
      <path
         style="fill:#58595b"
         inkscape:connector-curvature="0"
         d="m 336.156,281.176 v 3.229 h -6.457 v 8.764 c 0,1.558 -0.338,3.018 -1.015,4.381 -0.676,1.363 -1.594,2.553 -2.752,3.566 -1.158,1.016 -2.517,1.82 -4.074,2.414 -1.557,0.594 -3.229,0.892 -5.012,0.892 -1.783,0 -3.459,-0.298 -5.027,-0.892 -1.568,-0.594 -2.932,-1.398 -4.09,-2.414 -1.158,-1.014 -2.074,-2.203 -2.752,-3.566 -0.676,-1.363 -1.014,-2.823 -1.014,-4.381 v -8.764 h -6.457 v -3.229 h 16.111 v 3.229 h -6.457 v 8.947 c 0,1.107 0.251,2.148 0.754,3.121 0.502,0.975 1.193,1.824 2.075,2.553 0.881,0.728 1.911,1.301 3.09,1.721 1.179,0.421 2.435,0.631 3.767,0.631 1.332,0 2.583,-0.21 3.752,-0.631 1.168,-0.42 2.192,-0.993 3.074,-1.721 0.881,-0.729 1.572,-1.578 2.075,-2.553 0.503,-0.973 0.753,-2.014 0.753,-3.121 v -8.947 h -6.457 v -3.229 h 16.113 z"
         id="path3106" />
      <path
         style="fill:#58595b"
         inkscape:connector-curvature="0"
         d="m 371.545,287.602 h -3.197 v -3.197 h -11.284 v 16.081 h 6.457 v 3.229 h -16.112 v -3.229 h 6.457 v -16.081 h -11.284 v 3.197 h -3.229 v -6.426 h 32.192 v 6.426 z"
         id="path3108" />
      <path
         style="fill:#58595b"
         inkscape:connector-curvature="0"
         d="m 406.967,300.485 h 6.457 v 3.229 h -16.112 v -3.229 h 6.457 v -6.427 h -19.341 v 6.427 h 6.457 v 3.229 h -16.111 v -3.229 h 6.457 v -16.081 h -6.457 v -3.229 h 16.111 v 3.229 h -6.457 v 6.426 h 19.341 v -6.426 h -6.457 v -3.229 h 16.112 v 3.229 h -6.457 v 16.081 z"
         id="path3110" />
    </g>
    <g
       id="g3112"
       transform="translate(-16.4141,564.13655)">
      <path
         style="fill:#1e4164"
         inkscape:connector-curvature="0"
         d="m 218.155,467.75 h -0.178 l -4.063,-7.022 v 5.854 h 1.758 v 1.169 h -5.252 v -1.169 h 2.336 v -5.82 h -2.336 v -1.168 h 4.195 l 3.449,5.976 3.451,-5.976 h 4.184 v 1.168 h -2.326 v 5.82 h 2.326 v 1.169 h -5.242 v -1.169 h 1.748 v -5.854 l -4.05,7.022 z"
         id="path3114" />
      <path
         style="fill:#1e4164"
         inkscape:connector-curvature="0"
         d="m 237.363,460.761 h -7 v 2.326 h 5.831 v 1.169 h -5.831 v 2.325 h 7 v -1.157 h 1.157 v 2.326 h -11.652 v -1.169 h 2.338 v -5.82 h -2.338 v -1.168 h 11.652 v 2.326 h -1.157 v -1.158 z"
         id="path3116" />
      <path
         style="fill:#1e4164"
         inkscape:connector-curvature="0"
         d="m 247.423,467.75 h -0.179 l -4.062,-7.022 v 5.854 h 1.759 v 1.169 h -5.254 v -1.169 h 2.338 v -5.82 h -2.338 v -1.168 h 4.196 l 3.45,5.976 3.449,-5.976 h 4.185 v 1.168 h -2.325 v 5.82 h 2.325 v 1.169 h -5.241 v -1.169 h 1.747 v -5.854 l -4.05,7.022 z"
         id="path3118" />
      <path
         style="fill:#1e4164"
         inkscape:connector-curvature="0"
         d="m 264.428,459.593 c 0.445,0 0.861,0.076 1.252,0.228 0.389,0.152 0.729,0.36 1.018,0.624 0.289,0.263 0.518,0.572 0.685,0.929 0.167,0.357 0.251,0.734 0.251,1.136 0,0.4 -0.084,0.776 -0.251,1.129 -0.167,0.353 -0.396,0.662 -0.685,0.93 -0.289,0.267 -0.629,0.477 -1.018,0.629 -0.391,0.151 -0.807,0.228 -1.252,0.228 h -4.797 v 1.157 h 2.337 v 1.169 h -5.831 v -1.169 h 2.336 v -5.82 h -2.336 v -1.168 h 8.291 z m -0.067,4.663 c 0.282,0 0.548,-0.047 0.796,-0.14 0.248,-0.093 0.463,-0.217 0.646,-0.373 0.182,-0.155 0.326,-0.339 0.435,-0.551 0.107,-0.211 0.16,-0.439 0.16,-0.684 0,-0.245 -0.053,-0.474 -0.16,-0.685 -0.108,-0.212 -0.253,-0.396 -0.435,-0.551 -0.183,-0.156 -0.397,-0.28 -0.646,-0.373 -0.249,-0.093 -0.514,-0.14 -0.796,-0.14 h -4.729 v 3.495 h 4.729 z"
         id="path3120" />
      <path
         style="fill:#1e4164"
         inkscape:connector-curvature="0"
         d="m 279.563,466.581 h 2.338 v 1.169 h -5.832 v -1.169 h 2.337 v -2.325 h -7 v 2.325 h 2.337 v 1.169 h -5.832 v -1.169 h 2.338 v -5.82 h -2.338 v -1.168 h 5.832 v 1.168 h -2.337 v 2.326 h 7 v -2.326 h -2.337 v -1.168 h 5.832 v 1.168 h -2.338 v 5.82 z"
         id="path3122" />
      <path
         style="fill:#1e4164"
         inkscape:connector-curvature="0"
         d="m 286.552,466.581 h 2.337 v 1.169 h -5.832 v -1.169 h 2.338 v -5.82 h -2.338 v -1.168 h 5.832 v 1.168 h -2.337 v 5.82 z"
         id="path3124" />
      <path
         style="fill:#1e4164"
         inkscape:connector-curvature="0"
         d="m 299.907,465.558 c 0,0.482 -0.146,0.881 -0.439,1.196 -0.293,0.315 -0.676,0.565 -1.146,0.751 -0.47,0.186 -0.998,0.315 -1.58,0.39 -0.583,0.074 -1.163,0.111 -1.742,0.111 -0.719,0 -1.4,-0.05 -2.042,-0.15 -0.642,-0.1 -1.222,-0.239 -1.741,-0.417 v 0.312 h -1.169 v -2.326 h 1.169 v 0.835 c 0.378,0.2 0.9,0.361 1.568,0.484 0.668,0.122 1.406,0.184 2.215,0.184 0.623,0 1.161,-0.037 1.613,-0.111 0.453,-0.074 0.826,-0.173 1.119,-0.295 0.293,-0.123 0.51,-0.264 0.65,-0.423 0.142,-0.16 0.212,-0.325 0.212,-0.495 0,-0.342 -0.149,-0.61 -0.45,-0.808 -0.301,-0.196 -0.719,-0.316 -1.252,-0.361 l -3.807,-0.367 c -0.2,-0.022 -0.46,-0.066 -0.779,-0.134 -0.318,-0.066 -0.633,-0.18 -0.939,-0.339 -0.309,-0.16 -0.574,-0.385 -0.797,-0.674 -0.222,-0.289 -0.333,-0.668 -0.333,-1.135 0,-0.482 0.141,-0.881 0.423,-1.196 0.281,-0.315 0.646,-0.566 1.096,-0.752 0.449,-0.185 0.959,-0.314 1.531,-0.389 0.57,-0.074 1.146,-0.111 1.725,-0.111 0.652,0 1.271,0.046 1.858,0.139 0.586,0.093 1.12,0.225 1.603,0.396 v -0.278 h 1.157 v 2.326 h -1.157 v -0.847 c -0.356,-0.192 -0.837,-0.351 -1.441,-0.473 -0.605,-0.122 -1.277,-0.184 -2.02,-0.184 -0.623,0 -1.156,0.037 -1.598,0.111 -0.442,0.074 -0.801,0.173 -1.079,0.295 -0.278,0.122 -0.48,0.264 -0.606,0.423 -0.127,0.16 -0.189,0.325 -0.189,0.495 0,0.342 0.152,0.61 0.457,0.807 0.304,0.197 0.723,0.317 1.257,0.362 l 3.795,0.367 c 0.2,0.022 0.462,0.066 0.784,0.134 0.323,0.066 0.639,0.18 0.946,0.339 0.308,0.16 0.573,0.384 0.796,0.674 0.22,0.288 0.332,0.666 0.332,1.134 z"
         id="path3126" />
      <path
         style="fill:#1e4164"
         inkscape:connector-curvature="0"
         d="m 305.282,464.836 c -0.012,-0.646 0.522,-1.168 1.168,-1.168 0.645,0 1.168,0.512 1.168,1.168 0,0.645 -0.523,1.168 -1.18,1.168 -0.634,0 -1.156,-0.512 -1.156,-1.168 z"
         id="path3128" />
      <path
         style="fill:#1e4164"
         inkscape:connector-curvature="0"
         d="m 324.913,461.919 h -1.157 v -1.158 h -4.085 v 5.82 h 2.338 v 1.169 h -5.832 v -1.169 h 2.338 v -5.82 h -4.085 v 1.158 h -1.169 v -2.326 h 11.652 v 2.326 z"
         id="path3130" />
      <path
         style="fill:#1e4164"
         inkscape:connector-curvature="0"
         d="m 336.576,460.761 h -2.337 v -1.168 h 5.832 v 1.168 h -2.338 v 6.989 h -1.168 l -6.989,-6.989 v 5.82 h 2.337 v 1.169 h -5.832 v -1.169 h 2.338 v -5.82 h -2.338 v -1.168 h 3.974 l 6.521,6.521 v -5.353 z"
         id="path3132" />
    </g>
    <g
       id="g3134"
       transform="translate(-16.4141,564.13655)">
      <path
         style="fill:#1e4164"
         inkscape:connector-curvature="0"
         d="m 98.524,407.674 2.553,-10.208 v -45.935 l 0.638,-5.104 -1.914,5.104 -21.691,49.763 h -0.638 l -21.691,-49.763 -1.914,-5.104 0.638,5.104 v 45.935 l 2.552,10.208 H 35.364 l 2.552,-10.208 v -68.902 l -2.552,-10.208 h 24.881 l 17.864,40.449 0.638,2.934 0.638,-2.934 17.864,-40.449 h 24.881 l -2.551,10.208 v 68.902 l 2.551,10.208 H 98.524 z"
         id="path3136" />
      <path
         style="fill:#1e4164"
         inkscape:connector-curvature="0"
         d="m 185.291,407.674 1.276,-10.208 -2.553,-10.208 -1.275,-1.275 h -24.244 l -1.275,1.275 -2.553,10.208 1.276,10.208 h -23.605 l 5.104,-10.208 19.139,-70.816 -1.914,-8.294 h 34.451 l -1.913,8.294 19.14,70.816 5.104,10.208 h -26.158 z m -14.037,-72.731 -0.638,-3.828 -0.638,3.828 -8.294,34.451 1.276,1.275 h 15.311 l 1.276,-1.275 -8.293,-34.451 z"
         id="path3138" />
      <path
         style="fill:#1e4164"
         inkscape:connector-curvature="0"
         d="m 269.504,346.428 17.863,49.125 7.018,12.121 H 267.59 l -1.275,-11.484 -11.484,-34.451 h -1.914 l -8.294,8.295 -1.276,2.551 v 24.882 l 2.553,10.208 h -24.244 l 2.553,-10.208 v -68.902 l -2.553,-10.208 H 245.9 l -2.553,10.208 v 21.691 l -0.638,1.914 26.157,-26.157 2.553,-7.656 h 23.605 l 1.275,1.275 -26.795,26.796 z"
         id="path3140" />
      <path
         style="fill:#1e4164"
         inkscape:connector-curvature="0"
         d="m 358.183,407.674 h -52.315 l 2.553,-10.208 v -68.902 l -2.553,-10.208 h 51.039 l 6.38,19.14 -11.483,-3.827 h -22.968 l -1.276,1.275 v 15.312 l 1.276,1.276 h 10.846 l 9.569,-3.19 v 21.692 l -9.569,-3.19 h -10.846 l -1.276,1.276 v 21.053 l 1.914,1.914 h 22.33 l 13.397,-4.466 -7.018,21.053 z"
         id="path3142" />
      <path
         style="fill:#1e4164"
         inkscape:connector-curvature="0"
         d="m 421.981,407.674 -10.846,-33.176 -2.553,-1.275 h -9.57 l -1.275,1.275 v 22.968 l 2.552,10.208 h -24.243 l 2.552,-10.208 v -68.902 l -2.552,-10.208 h 52.314 l 15.313,15.313 v 21.691 l -14.036,14.035 9.569,26.158 7.018,12.121 h -24.243 z m 1.275,-65.713 -2.552,-5.104 -6.38,-3.189 h -15.313 l -1.275,1.275 v 21.691 l 1.275,1.275 h 15.313 l 6.38,-3.189 2.552,-5.104 v -7.655 z"
         id="path3144" />
      <path
         style="fill:#1e4164"
         inkscape:connector-curvature="0"
         d="M 498.539,407.674 H 463.45 l -7.018,-21.054 13.014,4.466 h 17.609 l 5.104,-2.552 2.553,-5.104 v -8.293 l -4.467,-4.467 -19.139,-4.465 -12.123,-12.122 v -19.14 l 16.588,-16.588 h 33.176 l 6.38,19.14 -11.483,-3.827 h -16.588 l -5.104,2.551 -2.553,5.104 v 5.104 l 4.467,4.465 19.139,4.467 12.122,12.121 v 23.605 l -16.588,16.589 z"
         id="path3146" />
    </g>
    <g
       id="g3032"
       transform="matrix(0.76086501,0,0,0.76086501,152.34606,625.25627)">
      <path
         id="path3197-0-4-3-6"
         d="m 168.08344,108.09693 -11.0198,23.25312 c -5.43881,-0.69926 -15.57503,-5.04027 -19.49102,-7.87721 l 10.13481,-23.761678 c -11.8124,0.447138 -20.17609,8.321518 -29.55232,16.425898 -2.17273,-1.59429 -3.99338,-2.30327 -6.07509,-3.07107 -3.46525,3.24949 -0.37801,10.16309 -0.38645,14.21031 0.17133,9.89818 -1.60287,24.15336 -9.23338,33.80258 L 20.32815,261.15491 c -1.92401,2.34437 -2.98561,7.95808 3.89224,13.90122 6.87784,5.94314 14.241,4.30611 17.07093,0.69556 l 78.55819,-101.97851 c 2.2152,-3.22249 6.18379,-4.72916 8.76307,-6.63322 3.18956,-2.22561 6.13367,-5.10521 8.72181,-7.07369 11.47312,-5.18262 23.5623,-9.12722 33.73618,-13.59125 6.36658,-5.75546 4.23068,-31.57014 -2.98713,-38.37809 z M 41.62198,265.39421 c -0.38718,11.31211 -18.37309,11.01112 -18.08916,-0.24608 0.28394,-11.25722 18.47633,-11.06605 18.08916,0.24608 z"
         inkscape:connector-curvature="0"
         style="fill:#1e4164;fill-opacity:1;stroke:none"
         sodipodi:nodetypes="ccccccccszcccccczzz" />
      <g
         inkscape:label="Layer 1"
         id="layer1-3"
         transform="translate(-153.59427,-812.07321)" />
      <path
         sodipodi:nodetypes="ccccccccccccccccccccccccccccccccccccccccccccccccccccccccccccccccccccccccccccccccccccccccccsssscccccccccccccccccccccccccccccccccccccccccccccccccccccccccccccccccccccccccccccccccccccccccccccccccccccccccccccccccccccccccccccccccccccccccccccccccc"
         inkscape:connector-curvature="0"
         id="path4053-7"
         d="m 137.85297,9 -2.78584,6.337024 -1.74498,6.306418 -5.29617,0.428594 -2.72462,-5.969665 -3.73487,-5.8166 -4.16346,0.673497 -1.77559,6.673788 -0.73473,6.520714 -5.17371,1.224548 -3.61241,-5.44924 -4.62267,-5.143094 -4.0104,1.285771 -0.67349,6.857468 0.27552,6.581938 -4.89819,2.020501 -4.43898,-4.836956 -5.3574,-4.377757 -3.76548,1.928662 0.39798,6.888074 1.31639,6.428875 -4.53083,2.785839 -5.14309,-4.102227 -5.96967,-3.459345 -3.39812,2.479702 1.43884,6.735011 2.32664,6.153344 -4.041,3.459346 -5.72476,-3.245049 -6.42888,-2.479702 -3.00013,2.969519 2.51032,6.428874 3.24505,5.72476 -3.45935,4.041 -6.15334,-2.29602 -6.73501,-1.46946 -2.47971,3.39812 3.45935,5.96967 4.10222,5.14309 -2.78583,4.53083 -6.42888,-1.31639 -6.88807,-0.36737 -1.92867,3.73487 4.37776,5.3574 4.83696,4.43898 -2.05112,4.89819 -6.55132,-0.27553 -6.85747,0.70412 -1.31639,4.010388 5.14311,4.59206 5.47984,3.61241 -1.22454,5.17371 -6.52072,0.73473 -6.67378,1.77559 -0.6735,4.16346 5.8166,3.73487 5.96966,2.72462 -0.42858,5.29617 -6.33704,1.74498 L 9,137.85296 l 0,4.22469 6.30642,2.78584 6.33704,1.74498 0.42858,5.29617 -5.96966,2.72461 -5.8166,3.73487 0.6735,4.16346 6.67378,1.7756 6.52072,0.73473 1.22454,5.17371 -5.47984,3.61241 -5.14311,4.59205 1.31639,4.01039 6.85747,0.70411 6.55132,-0.27552 2.05112,4.89819 -4.83696,4.43898 -4.37776,5.3574 1.92867,3.73487 6.88807,-0.36737 6.42888,-1.31639 2.78583,4.53083 -4.10222,5.14309 -3.45935,5.96967 2.47971,3.39812 6.73501,-1.46946 6.15334,-2.29603 3.45935,4.04101 -1.22455,2.17357 40.83864,-49.74723 c -5.82684,-9.0296 -9.24533,-19.77064 -9.24533,-31.31778 0,-31.95837 25.90148,-57.890468 57.85986,-57.890468 31.95838,0 57.85984,25.932098 57.85984,57.890468 0,31.95837 -25.90146,57.85984 -57.85984,57.85984 -10.85886,0 -21.01344,-2.9716 -29.69527,-8.17384 l -43.22651,56.14547 3.73487,-2.17357 5.14309,-4.10223 4.53083,2.78584 -1.31639,6.42888 -0.39798,6.88807 3.76548,1.92866 5.3574,-4.37775 4.43898,-4.83696 4.89819,2.0205 -0.27552,6.55133 0.67349,6.88808 4.0104,1.28577 4.62267,-5.1431 3.61241,-5.47984 5.17371,1.25515 0.73473,6.52072 1.77559,6.67378 4.16346,0.6735 3.73487,-5.8166 2.72462,-5.96966 5.29617,0.39797 1.74498,6.33704 2.78584,6.30641 4.22469,0 2.78584,-6.30641 1.74498,-6.33704 5.29617,-0.39797 2.72461,5.96966 3.73487,5.8166 4.16346,-0.6735 1.7756,-6.67378 0.73473,-6.52072 5.14309,-1.25515 3.64303,5.47984 4.59205,5.1431 4.01039,-1.28577 0.70411,-6.88808 -0.30614,-6.55133 4.92881,-2.0205 4.40837,4.83696 5.35739,4.37775 3.76549,-1.92866 -0.36737,-6.88807 -1.31639,-6.42888 4.53083,-2.78584 5.11247,4.10223 5.96968,3.45934 3.42873,-2.4797 -1.46946,-6.73501 -2.29602,-6.15334 4.041,-3.45935 5.69414,3.24505 6.45949,2.4797 2.96952,-2.96952 -2.4797,-6.42887 -3.24505,-5.72476 3.45935,-4.04101 6.12272,2.29603 6.76563,1.46946 2.4797,-3.39812 -3.48995,-5.96967 -4.07162,-5.14309 2.78584,-4.53083 6.42888,1.31639 6.88807,0.36737 1.89806,-3.73487 -4.34715,-5.3574 -4.83696,-4.43898 2.0205,-4.89819 6.55133,0.27552 6.88808,-0.70411 1.28577,-4.01039 -5.1431,-4.59205 -5.47984,-3.61241 1.25515,-5.17371 6.52072,-0.73473 6.67378,-1.7756 0.64288,-4.16346 -5.78598,-3.73487 -5.96966,-2.72461 0.39797,-5.29617 6.33704,-1.74498 6.30642,-2.78584 0,-4.22469 -6.30642,-2.78584 -6.33704,-1.74498 -0.39797,-5.29617 5.96966,-2.72462 5.78598,-3.73487 -0.64288,-4.16346 -6.67378,-1.77559 -6.52072,-0.73473 -1.25515,-5.17371 5.47984,-3.61241 5.1431,-4.59206 -1.28577,-4.010388 -6.88808,-0.70412 -6.55133,0.27553 -2.0205,-4.89819 4.83696,-4.43898 4.34715,-5.3574 -1.89806,-3.73487 -6.88807,0.36737 -6.42888,1.31639 -2.78584,-4.53083 4.07162,-5.14309 3.48995,-5.96967 -2.4797,-3.39812 -6.76563,1.46946 -6.12272,2.29602 -3.45935,-4.041 3.24505,-5.72476 2.4797,-6.428874 -2.96952,-2.969519 -6.45949,2.479702 -5.69414,3.245049 -4.041,-3.459346 2.29602,-6.153344 1.46946,-6.735011 -3.42873,-2.479702 -5.96968,3.459345 -5.11247,4.102227 -4.53083,-2.785839 1.31639,-6.428875 0.36737,-6.888074 -3.76549,-1.928662 -5.35739,4.377757 -4.40837,4.836956 -4.92881,-2.020501 0.30614,-6.581938 -0.70411,-6.857468 -4.01039,-1.285771 -4.59205,5.143094 -3.64303,5.44924 -5.14309,-1.224548 -0.73473,-6.520714 -1.7756,-6.673788 -4.16346,-0.673497 -3.73487,5.8166 -2.72461,5.969665 -5.29617,-0.428594 L 144.8635,15.337024 142.07766,9 z"
         style="fill:#58595b;fill-opacity:1;stroke:none" />
    </g>
    <g
       id="g3161"
       transform="translate(-16.4141,564.13655)">
      <path
         style="fill:#58595b"
         inkscape:connector-curvature="0"
         d="m 376.693,436.095 c -23.729,0.201 -62.958,1.28 -86.282,3.775 -2.427,-2.225 -5.525,-3.641 -8.895,-3.641 h -1.217 l -5.056,4.853 -5.19,-4.853 h -1.078 c -3.37,0 -6.469,1.416 -8.896,3.641 -23.322,-2.495 -62.554,-3.574 -86.281,-3.775 v -0.943 c 23.728,-0.269 62.959,-1.214 86.281,-3.707 2.428,2.225 5.526,3.572 8.896,3.572 h 1.012 l 5.257,-4.988 5.124,4.988 h 1.148 c 3.369,0 6.468,-1.348 8.895,-3.572 23.324,2.493 62.553,3.438 86.282,3.707 v 0.943 z"
         id="path3163" />
      <circle
         d="m 281.55899,435.823 c 0,3.45178 -2.79822,6.25 -6.25,6.25 -3.45178,0 -6.25,-2.79822 -6.25,-6.25 0,-3.45178 2.79822,-6.25 6.25,-6.25 3.45178,0 6.25,2.79822 6.25,6.25 z"
         style="fill:#58595b"
         sodipodi:ry="6.25"
         sodipodi:rx="6.25"
         sodipodi:cy="435.823"
         sodipodi:cx="275.30899"
         cx="275.30899"
         cy="435.823"
         r="6.25"
         id="circle3165" />
      <polyline
         style="fill:#ffffff"
         points="271.812,432.657 278.312,439.907 279.056,439.239 272.556,431.989   "
         id="polyline3167" />
    </g>
  </g>
</svg>
